HIERARCHY
ROOT hip
{
  OFFSET -43.284 82.2009 -17.9111
  CHANNELS 6 Xposition Yposition Zposition Zrotation Xrotation Yrotation
  JOINT abdomen
  {
    OFFSET 0 20.6881 -0.73152
    CHANNELS 3 Zrotation Xrotation Yrotation
    JOINT chest
    {
      OFFSET 0 11.7043 -0.48768
      CHANNELS 3 Zrotation Xrotation Yrotation
      JOINT neck
      {
        OFFSET 0 22.1894 -2.19456
        CHANNELS 3 Zrotation Xrotation Yrotation
        JOINT head
        {
          OFFSET -0.24384 7.07133 1.2192
          CHANNELS 3 Zrotation Xrotation Yrotation
          JOINT leftEye
          {
            OFFSET 4.14528 8.04674 8.04672
            CHANNELS 3 Zrotation Xrotation Yrotation
            End Site
            {
              OFFSET 1 0 0
            }
          }
          JOINT rightEye
          {
            OFFSET -3.6576 8.04674 8.04672
            CHANNELS 3 Zrotation Xrotation Yrotation
            End Site
            {
              OFFSET 1 0 0
            }
          }
        }
      }
      JOINT rCollar
      {
        OFFSET -2.68224 19.2634 -4.8768
        CHANNELS 3 Zrotation Xrotation Yrotation
        JOINT rShldr
        {
          OFFSET -8.77824 -1.95073 1.46304
          CHANNELS 3 Zrotation Xrotation Yrotation
          JOINT rForeArm
          {
            OFFSET -28.1742 -1.7115 0.48768
            CHANNELS 3 Zrotation Xrotation Yrotation
            JOINT rHand
            {
              OFFSET -22.5879 0.773209 7.07136
              CHANNELS 3 Zrotation Xrotation Yrotation
              JOINT rThumb1
              {
                OFFSET -1.2192 -0.487915 3.41376
                CHANNELS 3 Zrotation Xrotation Yrotation
                JOINT rThumb2
                {
                  OFFSET -3.37035 -0.52449 3.41376
                  CHANNELS 3 Zrotation Xrotation Yrotation
                  End Site
                  {
                    OFFSET -1.78271 -1.18214 1.43049
                  }
                }
              }
              JOINT rIndex1
              {
                OFFSET -7.75947 0.938293 5.60832
                CHANNELS 3 Zrotation Xrotation Yrotation
                JOINT rIndex2
                {
                  OFFSET -2.54057 -0.884171 1.56538
                  CHANNELS 3 Zrotation Xrotation Yrotation
                  End Site
                  {
                    OFFSET -1.62519 -0.234802 1.16502
                  }
                }
              }
              JOINT rMid1
              {
                OFFSET -8.24714 1.18213 3.41376
                CHANNELS 3 Zrotation Xrotation Yrotation
                JOINT rMid2
                {
                  OFFSET -3.10165 -0.590103 1.0647
                  CHANNELS 3 Zrotation Xrotation Yrotation
                  End Site
                  {
                    OFFSET -2.48547 -0.328903 0.83742
                  }
                }
              }
              JOINT rRing1
              {
                OFFSET -8.82822 0.546677 1.51678
                CHANNELS 3 Zrotation Xrotation Yrotation
                JOINT rRing2
                {
                  OFFSET -2.60934 -0.819778 -0.0198488
                  CHANNELS 3 Zrotation Xrotation Yrotation
                  End Site
                  {
                    OFFSET -2.33842 -0.294052 0.168128
                  }
                }
              }
              JOINT rPinky1
              {
                OFFSET -8.27202 -0.0477905 -0.4584
                CHANNELS 3 Zrotation Xrotation Yrotation
                JOINT rPinky2
                {
                  OFFSET -1.82734 -0.647385 -0.700984
                  CHANNELS 3 Zrotation Xrotation Yrotation
                  End Site
                  {
                    OFFSET -1.69225 -0.51767 -0.607171
                  }
                }
              }
            }
          }
        }
      }
      JOINT lCollar
      {
        OFFSET 2.68224 19.2634 -4.8768
        CHANNELS 3 Zrotation Xrotation Yrotation
        JOINT lShldr
        {
          OFFSET 8.77824 -1.95073 1.46304
          CHANNELS 3 Zrotation Xrotation Yrotation
          JOINT lForeArm
          {
            OFFSET 28.1742 -1.7115 0.48768
            CHANNELS 3 Zrotation Xrotation Yrotation
            JOINT lHand
            {
              OFFSET 22.5879 0.773209 7.07136
              CHANNELS 3 Zrotation Xrotation Yrotation
              JOINT lThumb1
              {
                OFFSET 1.2192 -0.487915 3.41376
                CHANNELS 3 Zrotation Xrotation Yrotation
                JOINT lThumb2
                {
                  OFFSET 3.37035 -0.52449 3.41376
                  CHANNELS 3 Zrotation Xrotation Yrotation
                  End Site
                  {
                    OFFSET 1.78271 -1.18214 1.43049
                  }
                }
              }
              JOINT lIndex1
              {
                OFFSET 7.75947 0.938293 5.60832
                CHANNELS 3 Zrotation Xrotation Yrotation
                JOINT lIndex2
                {
                  OFFSET 2.54057 -0.884171 1.56538
                  CHANNELS 3 Zrotation Xrotation Yrotation
                  End Site
                  {
                    OFFSET 1.62519 -0.234802 1.16502
                  }
                }
              }
              JOINT lMid1
              {
                OFFSET 8.24714 1.18213 3.41376
                CHANNELS 3 Zrotation Xrotation Yrotation
                JOINT lMid2
                {
                  OFFSET 3.10165 -0.590103 1.0647
                  CHANNELS 3 Zrotation Xrotation Yrotation
                  End Site
                  {
                    OFFSET 2.48547 -0.328903 0.83742
                  }
                }
              }
              JOINT lRing1
              {
                OFFSET 8.82822 0.546677 1.51678
                CHANNELS 3 Zrotation Xrotation Yrotation
                JOINT lRing2
                {
                  OFFSET 2.60934 -0.819778 -0.0198488
                  CHANNELS 3 Zrotation Xrotation Yrotation
                  End Site
                  {
                    OFFSET 2.33842 -0.294052 0.168128
                  }
                }
              }
              JOINT lPinky1
              {
                OFFSET 8.27202 -0.0477905 -0.4584
                CHANNELS 3 Zrotation Xrotation Yrotation
                JOINT lPinky2
                {
                  OFFSET 1.82734 -0.647385 -0.700984
                  CHANNELS 3 Zrotation Xrotation Yrotation
                  End Site
                  {
                    OFFSET 1.69225 -0.51767 -0.607171
                  }
                }
              }
            }
          }
        }
      }
    }
  }
  JOINT rButtock
  {
    OFFSET -8.77824 4.35084 1.2192
    CHANNELS 3 Zrotation Xrotation Yrotation
    JOINT rThigh
    {
      OFFSET 0 -1.70687 -2.19456
      CHANNELS 3 Zrotation Xrotation Yrotation
      JOINT rShin
      {
        OFFSET 0 -36.8199 0.73152
        CHANNELS 3 Zrotation Xrotation Yrotation
        JOINT rFoot
        {
          OFFSET 0.73152 -45.1104 -5.12064
          CHANNELS 3 Zrotation Xrotation Yrotation
          End Site
          {
            OFFSET -1.1221 -3.69964 12.103
          }
        }
      }
    }
  }
  JOINT lButtock
  {
    OFFSET 8.77824 4.35084 1.2192
    CHANNELS 3 Zrotation Xrotation Yrotation
    JOINT lThigh
    {
      OFFSET 0 -1.70687 -2.19456
      CHANNELS 3 Zrotation Xrotation Yrotation
      JOINT lShin
      {
        OFFSET 0 -36.8199 0.73152
        CHANNELS 3 Zrotation Xrotation Yrotation
        JOINT lFoot
        {
          OFFSET -0.73152 -45.1104 -5.12064
          CHANNELS 3 Zrotation Xrotation Yrotation
          End Site
          {
            OFFSET 1.1221 -3.69964 12.103
          }
        }
      }
    }
  }
}
MOTION
Frames:	9
Frame Time:	0.00833333
-66.4736 85.0267 -5.75954 133.194 45.1602 -80.083 11.5625 12.938 -21.4544 8.45586 -1.53134 -5.19387 -4.69348 -0.0609067 -0.456182 18.4544 -53.0475 9.51303 -0 0 0 -0 0 0 -8.40031e-013 1.10959e-012 -1.41029e-013 -0.0800434 -32.0571 55.1565 -16.7657 -9.42096 31.3 -1.96791 -36.5467 -5.9742 -2.60767e-009 -8.13436e-010 2.71835e-011 -4.48752e-009 -1.39757e-009 -3.15999e-011 -2.60765e-009 -8.13437e-010 2.71695e-011 7.73091 5.47488 0.417314 -2.60767e-009 -8.13436e-010 2.71803e-011 2.90554 0.965183 0.102902 -2.60766e-009 -8.13435e-010 2.71723e-011 10.2786 0.731801 0.0259123 -2.60767e-009 -8.13433e-010 2.71736e-011 2.22167 -0.733487 -0.20892 -8.40245e-013 1.10962e-012 -1.41235e-013 3.42267 -32.2712 -67.2132 16.2728 -8.95042 -30.2345 2.96529 -43.0222 7.53054 -1.99948e-009 4.55353e-010 -6.59e-010 -3.41594e-009 8.50668e-010 -1.21124e-009 -1.99948e-009 4.55352e-010 -6.58993e-010 -7.73091 5.47488 -0.417314 -1.99948e-009 4.55351e-010 -6.59006e-010 -2.90554 0.965183 -0.102902 -1.99949e-009 4.5535e-010 -6.58998e-010 -10.2786 0.731801 -0.0259123 -1.99947e-009 4.55353e-010 -6.59004e-010 -2.22167 -0.733487 0.20892 -2.03217e-016 0 -3.88251e-019 -26.7966 -30.9565 15.474 -0.445988 44.5556 0.760093 0.225846 -16.1814 3.27375 2.03217e-016 0 3.88251e-019 55.2452 -72.1807 46.9592 0.956432 59.0988 -1.63805 7.22671 -21.7872 14.4634 
-66.6341 85.1147 -5.75387 132.177 45.0109 -75.7615 11.113 12.3745 -22.3314 9.30163 -1.48631 -5.44542 -5.14248 0.104497 -0.451201 18.9145 -52.5831 9.45537 -0 0 0 -0 0 0 -1.03681e-012 1.29765e-012 -2.12998e-013 0.751864 -32.495 54.2084 -16.5797 -9.2372 30.9062 -1.74669 -34.7058 -5.58579 -3.51766e-009 -8.71866e-010 -8.52595e-010 -6.02921e-009 -1.49431e-009 -1.5799e-009 -3.51764e-009 -8.71867e-010 -8.52611e-010 7.73091 5.47488 0.417314 -3.51766e-009 -8.71867e-010 -8.52599e-010 2.90554 0.965183 0.102902 -3.51765e-009 -8.71866e-010 -8.52607e-010 10.2786 0.731801 0.0259123 -3.51765e-009 -8.71864e-010 -8.52605e-010 2.22167 -0.733487 -0.20892 -1.03703e-012 1.29768e-012 -2.13197e-013 6.13858 -31.4886 -67.1232 15.9794 -8.66811 -29.6292 3.172 -44.0862 7.82384 -2.5809e-009 5.06947e-010 -5.24963e-010 -4.41611e-009 9.60448e-010 -1.00171e-009 -2.5809e-009 5.06947e-010 -5.24954e-010 -7.73091 5.47488 -0.417314 -2.5809e-009 5.06944e-010 -5.2497e-010 -2.90554 0.965183 -0.102902 -2.58091e-009 5.06944e-010 -5.2496e-010 -10.2786 0.731801 -0.0259123 -2.58089e-009 5.06947e-010 -5.24966e-010 -2.22167 -0.733487 0.20892 -2.03217e-016 0 -3.88251e-019 -28.1739 -32.8456 15.6975 -0.595668 49.5417 0.901117 -0.165328 -16.2507 2.09554 2.03217e-016 0 3.88251e-019 46.7533 -70.6425 39.4434 0.841566 56.9283 -1.50152 7.11908 -21.7969 14.2401 
-66.7833 85.1721 -5.80237 131.237 44.864 -71.4506 10.4657 11.8562 -23.1495 10.1748 -1.46239 -5.6856 -5.56338 0.377348 -0.438213 19.5179 -52.2756 9.50812 -0 0 0 -0 0 0 -9.61727e-013 1.22444e-012 -1.94072e-013 1.04743 -32.7981 52.7075 -16.4701 -9.13 30.6751 -1.58585 -33.262 -5.29239 -3.21344e-009 -7.49261e-010 -1.18264e-009 -5.49826e-009 -1.28516e-009 -2.14157e-009 -3.21342e-009 -7.49262e-010 -1.18266e-009 7.73091 5.47488 0.417314 -3.21344e-009 -7.49261e-010 -1.18264e-009 2.90554 0.965183 0.102902 -3.21343e-009 -7.4926e-010 -1.18265e-009 10.2786 0.731801 0.0259123 -3.21344e-009 -7.49258e-010 -1.18265e-009 2.22167 -0.733487 -0.20892 -9.6192e-013 1.22448e-012 -1.94274e-013 8.21386 -30.9283 -67.1592 15.9337 -8.61983 -29.5476 3.25393 -44.4752 7.93615 -2.47595e-009 4.94418e-010 -1.3395e-010 -4.24932e-009 9.29551e-010 -3.22203e-010 -2.47596e-009 4.94419e-010 -1.33939e-010 -7.73091 5.47488 -0.417314 -2.47595e-009 4.94416e-010 -1.33955e-010 -2.90554 0.965183 -0.102902 -2.47596e-009 4.94416e-010 -1.33947e-010 -10.2786 0.731801 -0.0259123 -2.47594e-009 4.94418e-010 -1.33954e-010 -2.22167 -0.733487 0.20892 -2.03217e-016 0 -3.88251e-019 -29.5559 -34.6801 16.1895 -0.795909 54.547 1.09505 -0.382235 -16.2734 1.45277 2.03217e-016 0 3.88251e-019 40.008 -68.8182 34.1081 0.737724 54.6893 -1.37483 7.12523 -21.8483 14.1899 
-66.9001 85.1858 -5.92161 130.279 44.6746 -67.0192 9.645 11.38 -23.9127 11.0864 -1.46177 -5.9153 -5.99761 0.726293 -0.421589 20.2123 -52.0476 9.61723 -0 0 0 -0 0 0 -7.25134e-013 9.887e-013 -1.24299e-013 1.03923 -32.9913 50.8336 -16.4055 -9.06792 30.5374 -1.45532 -32.0402 -5.04939 -2.23019e-009 -4.93434e-010 -1.29825e-009 -3.80565e-009 -8.48952e-010 -2.31252e-009 -2.23018e-009 -4.93435e-010 -1.29826e-009 7.73091 5.47488 0.417314 -2.23019e-009 -4.93435e-010 -1.29825e-009 2.90554 0.965183 0.102902 -2.23019e-009 -4.93434e-010 -1.29826e-009 10.2786 0.731801 0.0259123 -2.2302e-009 -4.93433e-010 -1.29825e-009 2.22167 -0.733487 -0.20892 -7.25275e-013 9.88734e-013 -1.24511e-013 9.98463 -30.5131 -67.2031 16.0791 -8.75623 -29.8516 3.25188 -44.4469 7.9306 -1.98974e-009 4.28221e-010 4.16902e-010 -3.43484e-009 7.88228e-010 6.48045e-010 -1.98974e-009 4.28223e-010 4.16917e-010 -7.73091 5.47488 -0.417314 -1.98974e-009 4.2822e-010 4.16901e-010 -2.90554 0.965183 -0.102902 -1.98974e-009 4.28219e-010 4.16905e-010 -10.2786 0.731801 -0.0259123 -1.98973e-009 4.28221e-010 4.16898e-010 -2.22167 -0.733487 0.20892 -2.03217e-016 0 -3.88251e-019 -30.9576 -36.4733 16.8033 -1.08194 59.6721 1.37625 -0.509375 -16.2559 1.07439 2.03217e-016 0 3.88251e-019 34.4116 -66.8713 30.2836 0.64498 52.3745 -1.25688 7.18821 -21.9152 14.219 
-66.9804 85.1584 -6.10519 129.258 44.5057 -62.5604 8.9169 10.9151 -24.6445 11.8821 -1.43575 -6.13739 -6.36926 1.08833 -0.414855 21.0213 -51.7819 9.81543 -0 0 0 -0 0 0 -4.44805e-013 6.45234e-013 -6.34795e-014 0.957155 -33.1417 48.8156 -16.3529 -9.0185 30.4233 -1.3351 -30.8785 -4.8224 -1.18248e-009 -2.46951e-010 -1.30092e-009 -2.00588e-009 -4.30017e-010 -2.28505e-009 -1.18247e-009 -2.46951e-010 -1.30093e-009 7.73091 5.47488 0.417314 -1.18248e-009 -2.46951e-010 -1.30092e-009 2.90554 0.965183 0.102902 -1.18247e-009 -2.46951e-010 -1.30092e-009 10.2786 0.731801 0.0259123 -1.18248e-009 -2.46949e-010 -1.30092e-009 2.22167 -0.733487 -0.20892 -4.44896e-013 6.45266e-013 -6.37062e-014 11.309 -30.3202 -67.1878 16.3077 -8.97463 -30.3292 3.16726 -44.0188 7.81083 -1.28158e-009 3.11538e-010 9.41281e-010 -2.23691e-009 5.57417e-010 1.57987e-009 -1.28159e-009 3.11542e-010 9.41297e-010 -7.73091 5.47488 -0.417314 -1.28158e-009 3.11538e-010 9.41282e-010 -2.90554 0.965183 -0.102902 -1.28159e-009 3.11538e-010 9.41283e-010 -10.2786 0.731801 -0.0259123 -1.28158e-009 3.11539e-010 9.41276e-010 -2.22167 -0.733487 0.20892 -2.03217e-016 0 -3.88251e-019 -32.088 -38.1582 17.8076 -1.47664 64.7176 1.77329 -0.625764 -16.2257 0.720559 2.03217e-016 0 3.88251e-019 29.8815 -64.9124 27.5657 0.567737 50.1383 -1.15398 7.22887 -21.9527 14.2044 
-67.0055 85.0603 -6.35362 128.096 44.4569 -58.1437 8.54515 10.4317 -25.3686 12.4083 -1.33569 -6.35471 -6.60205 1.40046 -0.431529 21.9648 -51.3611 10.1329 -0 0 0 -0 0 0 -2.38515e-013 2.4886e-013 -7.14134e-014 1.01627 -33.3512 46.8827 -16.2786 -8.9487 30.2631 -1.21181 -29.6142 -4.58193 -6.8484e-010 -1.52374e-010 -1.29216e-009 -1.15346e-009 -2.72672e-010 -2.25149e-009 -6.84837e-010 -1.52374e-010 -1.29217e-009 7.73091 5.47488 0.417314 -6.8484e-010 -1.52374e-010 -1.29216e-009 2.90554 0.965183 0.102902 -6.84834e-010 -1.52373e-010 -1.29216e-009 10.2786 0.731801 0.0259123 -6.84843e-010 -1.52372e-010 -1.29215e-009 2.22167 -0.733487 -0.20892 -2.38584e-013 2.48896e-013 -7.16619e-014 12.0448 -30.4267 -67.0476 16.5152 -9.1748 -30.7678 3.00784 -43.2082 7.58601 -5.1082e-010 1.47555e-010 1.25287e-009 -9.19767e-010 2.58054e-010 2.14412e-009 -5.10828e-010 1.47559e-010 1.25289e-009 -7.73091 5.47488 -0.417314 -5.10822e-010 1.47556e-010 1.25287e-009 -2.90554 0.965183 -0.102902 -5.10825e-010 1.47556e-010 1.25287e-009 -10.2786 0.731801 -0.0259123 -5.10815e-010 1.47557e-010 1.25287e-009 -2.22167 -0.733487 0.20892 -2.03217e-016 0 -3.88251e-019 -32.6235 -39.6497 19.4883 -2.01395 69.4837 2.32741 -0.810937 -16.2086 0.151259 2.03217e-016 0 3.88251e-019 26.419 -63.0169 25.6288 0.507336 48.135 -1.06971 7.16796 -21.9161 14.0227 
-66.9591 84.8922 -6.64675 126.63 44.6688 -53.6455 8.66984 9.97137 -26.0532 12.5244 -1.11245 -6.5569 -6.56171 1.635 -0.486535 23.2285 -50.8137 10.7435 -0 0 0 -0 0 0 -1.20746e-013 -3.20898e-013 -2.10452e-013 1.30638 -33.7265 45.0114 -16.1754 -8.85144 30.0435 -1.08508 -28.2015 -4.32158 -1.06227e-009 -2.68192e-010 -1.2658e-009 -1.80855e-009 -4.78179e-010 -2.20843e-009 -1.06226e-009 -2.68192e-010 -1.26581e-009 7.73091 5.47488 0.417314 -1.06227e-009 -2.68193e-010 -1.2658e-009 2.90554 0.965183 0.102902 -1.06226e-009 -2.68192e-010 -1.2658e-009 10.2786 0.731801 0.0259123 -1.06227e-009 -2.68192e-010 -1.26579e-009 2.22167 -0.733487 -0.20892 -1.20836e-013 -3.20845e-013 -2.10739e-013 12.0006 -30.9984 -66.8425 16.7244 -9.37999 -31.2124 2.76643 -41.8848 7.23501 5.53332e-010 -1.61212e-010 1.28577e-009 9.19966e-010 -2.68903e-010 2.23261e-009 5.53325e-010 -1.61208e-010 1.28578e-009 -7.73091 5.47488 -0.417314 5.5333e-010 -1.61211e-010 1.28577e-009 -2.90554 0.965183 -0.102902 5.53326e-010 -1.61211e-010 1.28577e-009 -10.2786 0.731801 -0.0259123 5.53338e-010 -1.6121e-010 1.28576e-009 -2.22167 -0.733487 0.20892 -2.03217e-016 0 -3.88251e-019 -32.3305 -40.8798 22.0126 -2.82524 73.997 3.16993 -1.05714 -16.224 -0.623284 2.03217e-016 0 3.88251e-019 24.0382 -61.2073 24.3987 0.460139 46.4059 -1.00099 6.97627 -21.7554 13.6307 
-66.8471 84.6516 -6.94884 124.83 45.0655 -48.9435 9.12923 9.53348 -26.6987 12.3467 -0.804179 -6.74625 -6.32643 1.82917 -0.568896 24.7224 -50.1789 11.5613 -0 0 0 -0 0 0 -3.43255e-014 -1.04824e-012 -4.33233e-013 1.68548 -34.1957 43.1001 -16.0603 -8.74344 29.8001 -0.963301 -26.7277 -4.05759 -1.93329e-009 -5.11549e-010 -1.17879e-009 -3.31577e-009 -9.04196e-010 -2.07156e-009 -1.93329e-009 -5.11548e-010 -1.1788e-009 7.73091 5.47488 0.417314 -1.93329e-009 -5.1155e-010 -1.17879e-009 2.90554 0.965183 0.102902 -1.93329e-009 -5.11549e-010 -1.17879e-009 10.2786 0.731801 0.0259123 -1.93329e-009 -5.11549e-010 -1.17878e-009 2.22167 -0.733487 -0.20892 -3.4463e-014 -1.04816e-012 -4.33571e-013 11.3063 -31.9509 -66.5911 16.9711 -9.62452 -31.7433 2.47206 -40.0818 6.78632 1.90476e-009 -5.83684e-010 1.14474e-009 3.26527e-009 -9.79745e-010 2.02771e-009 1.90475e-009 -5.83682e-010 1.14475e-009 -7.73091 5.47488 -0.417314 1.90476e-009 -5.83683e-010 1.14475e-009 -2.90554 0.965183 -0.102902 1.90475e-009 -5.83684e-010 1.14474e-009 -10.2786 0.731801 -0.0259123 1.90477e-009 -5.83681e-010 1.14474e-009 -2.22167 -0.733487 0.20892 -2.03217e-016 0 -3.88251e-019 -31.3627 -41.828 25.227 -4.23108 78.3338 4.61848 -1.33254 -16.2521 -1.50006 2.03217e-016 0 3.88251e-019 22.4192 -59.4925 23.7443 0.421156 44.8685 -0.941902 6.7029 -21.5048 13.0992 
-66.6743 84.3433 -7.23648 122.84 45.4652 -44.1526 9.7279 9.02676 -27.3775 12.1077 -0.493211 -6.9446 -6.13864 2.01732 -0.653278 26.058 -49.361 12.2321 -0 0 0 -0 0 0 1.04516e-014 -1.67395e-012 -6.34989e-013 2.02077 -34.6218 41.2692 -15.9352 -8.62699 29.5363 -0.84955 -25.2299 -3.79667 -2.8528e-009 -8.12985e-010 -1.07729e-009 -4.90628e-009 -1.42964e-009 -1.91171e-009 -2.8528e-009 -8.12984e-010 -1.0773e-009 7.73091 5.47488 0.417314 -2.8528e-009 -8.12986e-010 -1.07728e-009 2.90554 0.965183 0.102902 -2.85279e-009 -8.12985e-010 -1.07728e-009 10.2786 0.731801 0.0259123 -2.8528e-009 -8.12985e-010 -1.07728e-009 2.22167 -0.733487 -0.20892 1.02625e-014 -1.67385e-012 -6.35371e-013 10.3091 -32.9816 -66.1471 17.1788 -9.8317 -32.1987 2.17815 -38.0619 6.31547 3.02879e-009 -9.23832e-010 8.9951e-010 5.22131e-009 -1.54941e-009 1.63602e-009 3.02879e-009 -9.23832e-010 8.99509e-010 -7.73091 5.47488 -0.417314 3.02879e-009 -9.23832e-010 8.99514e-010 -2.90554 0.965183 -0.102902 3.02879e-009 -9.23832e-010 8.99509e-010 -10.2786 0.731801 -0.0259123 3.0288e-009 -9.23828e-010 8.99504e-010 -2.22167 -0.733487 0.20892 -2.03217e-016 0 -3.88251e-019 -29.9917 -42.4697 28.9217 -6.97914 82.3651 7.42601 -1.67963 -16.2568 -2.57961 2.03217e-016 0 3.88251e-019 21.1908 -57.899 23.375 0.388814 43.4923 -0.891071 6.38506 -21.2466 12.4757 
